<svg id="Logo" xmlns="http://www.w3.org/2000/svg" viewBox="0 0 512 512">
  <title>Jongerenraad Zutphen logo</title>
  <desc>Een rode en blauwe figuur, hun armen naar elkaar uitgestoken</desc>
  <defs>
    <style>
      .cls-1 {
        fill: #63a3be;
      }

      .cls-2 {
        fill: #165377;
      }

      .cls-3 {
        fill: #c32333;
      }

      .cls-4 {
        fill: #e9232d;
      }
    </style>
  </defs>
  <g id="Left">
    <path id="Head-2" data-name="Head" class="cls-3" d="M45.42,68.3a45,45,0,1,1,45,45A44.83,44.83,0,0,1,45.42,68.3Z"/>
    <path id="Arm-2" data-name="Arm" class="cls-4" d="M118.11,180.73c-4.7-2.41-9.51-4.65-14.1-7.27-15.93-9.08-31.78-18.3-47.69-27.43-2.35-1.34-4.85-2.44-7.27-3.65a16.71,16.71,0,0,1,2.67-2.33c5.52-3.16,10.8-7.64,16.75-8.92s12.42.91,18.69,1.29c25.89,1.55,46-8.29,59.24-30.87,3.5-6,5.85-12.64,8.89-18.91a9,9,0,0,1,3.16-3.83Q201,54.06,243.66,29.49c.53-.31,1.1-.55,2.07-1A25.84,25.84,0,0,1,246,31.4q-.33,35.74-.66,71.5c0,2.19-.51,3.65-2.57,4.85q-62,36.27-124,72.68A7,7,0,0,1,118.11,180.73Z"/>
    <path id="Body-2" data-name="Body" class="cls-3" d="M118.11,180.73a24.48,24.48,0,0,0,3.08,2.53Q181.37,218,241.62,252.55c2.6,1.49,3.58,3.09,3.56,6.12-.14,22.6-.07,45.2-.08,67.79v4.64L118.47,259.8c-.08,1.6-.17,2.65-.18,3.7,0,24.22,0,48.44-.07,72.66,0,2.79,1,4.18,3.3,5.51q60.44,34.65,120.8,69.41c2.57,1.47,3.65,3,3.63,6.09-.15,22.6-.08,45.2-.08,67.79v4.44c-1.66-.81-2.85-1.33-4-2q-94.49-53.19-189-106.34c-2.94-1.65-3.82-3.68-3.82-6.92q.11-98.68,0-197.38c0-11.47-.06-22.94-.09-34.41,2.42,1.21,4.92,2.31,7.27,3.65,15.91,9.13,31.76,18.35,47.69,27.43C108.6,176.08,113.41,178.32,118.11,180.73Z"/>
  </g>
  <g id="Right">
    <path id="Head" class="cls-2" d="M421.6,22.45a45,45,0,1,1-45.09,44.92A45,45,0,0,1,421.6,22.45Z"/>
    <path id="Arm" class="cls-2" d="M462.35,142.49c-7.06,3.91-14.18,7.73-21.19,11.75-14.93,8.55-29.8,17.2-44.72,25.78a7.91,7.91,0,0,1-2.1.55L289.45,118.94c-6.67-3.91-13.39-7.74-20-11.83a5.24,5.24,0,0,1-2.2-3.72c-.38-24.33-.59-48.66-.83-73a20.27,20.27,0,0,1,.23-2.24c1.35.69,2.44,1.18,3.47,1.78q41.65,24,83.26,48.2a11.2,11.2,0,0,1,3.84,4.6c3.17,6.34,5.57,13.12,9.21,19.17,14.22,23.68,35.78,32.45,62.64,29.88a22.08,22.08,0,0,0,5.18-.68c6.11-2.13,11.31-.61,16.29,3.2,2.86,2.19,6.19,3.75,9.22,5.72A16.42,16.42,0,0,1,462.35,142.49Z"/>
    <path id="Body" class="cls-1" d="M462.35,142.49a33.48,33.48,0,0,1,.47,4q-.21,113.86-.39,227.72c0,3.62-1.22,5.64-4.33,7.38q-48.68,27.24-97.23,54.7Q315.2,462,269.52,487.69c-1,.59-2.11,1.11-3.55,1.86-.08-1.61-.19-2.69-.19-3.78,0-23,0-45.94-.06-68.92a5.24,5.24,0,0,1,3-5.3Q329,377,389.19,342.4c3.07-1.76,4.23-3.66,4.2-7.29-.19-23.47-.1-46.94-.1-70.42v-4.8L266.8,331.09c-.12-1.85-.26-3-.26-4.2,0-22.85,0-45.69-.08-68.54,0-2.77,1-4.14,3.31-5.49q61.05-35,122-70.23a20.8,20.8,0,0,0,2.58-2.06,7.91,7.91,0,0,0,2.1-.55c14.92-8.58,29.79-17.23,44.72-25.78C448.17,150.22,455.29,146.4,462.35,142.49Z"/>
  </g>
</svg>
