<?xml version="1.0" standalone="no"?>
<!DOCTYPE svg PUBLIC "-//W3C//DTD SVG 20010904//EN"
 "http://www.w3.org/TR/2001/REC-SVG-20010904/DTD/svg10.dtd">
<svg version="1.0" xmlns="http://www.w3.org/2000/svg"
 width="700.000000pt" height="700.000000pt" viewBox="0 0 700.000000 700.000000"
 preserveAspectRatio="xMidYMid meet">
<metadata>
Created by potrace 1.14, written by Peter Selinger 2001-2017
</metadata>
<g transform="translate(0.000000,700.000000) scale(0.100000,-0.100000)"
fill="#000000" stroke="none">
<path d="M5699 6689 c-247 -26 -445 -191 -526 -439 -27 -83 -25 -262 4 -355
78 -248 301 -419 560 -429 241 -10 467 122 572 335 52 104 69 188 65 304 -10
297 -245 552 -534 581 -30 3 -59 6 -65 8 -5 1 -40 -1 -76 -5z"/>
<path d="M1090 6664 c-162 -43 -297 -144 -381 -284 -66 -113 -84 -182 -84
-330 1 -99 15 -157 63 -260 49 -104 166 -221 272 -272 109 -52 137 -59 262
-63 223 -7 422 102 541 298 184 303 64 707 -258 865 -33 16 -73 33 -90 37 -16
5 -37 10 -45 12 -42 13 -229 10 -280 -3z"/>
<path d="M3305 6581 c-28 -15 -191 -109 -363 -209 -172 -100 -332 -193 -355
-206 -269 -152 -431 -252 -451 -279 -12 -18 -33 -57 -45 -87 -171 -414 -435
-610 -821 -611 -52 0 -113 4 -135 8 -22 4 -80 8 -130 8 -103 0 -137 -13 -263
-99 l-72 -49 0 -1601 c0 -1251 3 -1606 13 -1625 11 -21 83 -67 247 -158 30
-16 107 -59 170 -95 63 -36 138 -78 165 -93 28 -15 64 -35 80 -45 17 -10 50
-29 75 -42 25 -14 205 -115 400 -225 195 -110 375 -211 400 -225 25 -14 61
-34 80 -45 28 -16 396 -223 575 -323 22 -13 96 -54 165 -93 247 -140 314 -176
318 -172 2 2 4 229 4 504 1 370 -2 507 -11 524 -11 20 -86 66 -335 208 -45 25
-202 115 -351 201 -148 86 -286 165 -305 176 -19 10 -170 97 -335 192 -165 95
-316 182 -335 192 -81 45 -74 -4 -75 565 0 280 2 522 3 539 l4 31 291 -164
c161 -91 317 -179 347 -196 30 -16 228 -128 440 -247 212 -119 408 -229 435
-245 28 -15 84 -47 126 -71 42 -24 79 -44 82 -44 4 0 7 231 7 513 0 502 0 514
-20 532 -11 10 -29 23 -39 29 -11 6 -46 26 -78 45 -32 19 -71 42 -88 51 -53
30 -610 351 -857 494 -90 51 -179 103 -198 114 -321 183 -427 246 -439 257
-11 11 -10 15 10 28 28 17 692 407 758 445 25 13 68 38 95 55 43 25 468 274
759 445 43 25 83 55 89 66 8 14 13 120 14 306 2 157 4 387 5 512 2 125 1 230
-2 232 -2 3 -27 -8 -54 -23z"/>
<path d="M3647 6603 c-2 -5 -3 -123 -2 -263 2 -140 4 -367 5 -505 2 -137 7
-259 12 -271 9 -18 167 -119 313 -199 28 -16 61 -36 75 -45 14 -9 45 -28 70
-42 39 -22 328 -192 725 -426 61 -36 126 -74 146 -86 85 -50 313 -182 342
-199 64 -37 64 -39 -36 -96 -50 -30 -112 -66 -137 -81 -25 -15 -65 -39 -90
-53 -25 -13 -85 -48 -135 -77 -49 -29 -110 -64 -134 -78 -25 -14 -68 -38 -95
-55 -28 -16 -69 -40 -91 -52 -22 -12 -116 -66 -210 -120 -243 -140 -427 -246
-450 -259 -182 -100 -295 -173 -304 -195 -7 -20 -9 -919 -2 -1014 1 -15 5 -15
39 7 20 13 273 156 562 319 565 317 549 308 720 404 63 36 135 77 160 91 25
13 71 40 103 58 32 19 61 34 65 34 4 0 18 9 32 20 14 11 30 20 35 20 8 0 11
-168 12 -527 1 -455 -1 -531 -14 -553 -8 -14 -54 -48 -101 -75 -47 -28 -94
-54 -103 -60 -10 -5 -30 -17 -46 -26 -15 -8 -212 -121 -438 -251 -225 -130
-426 -245 -445 -255 -345 -197 -568 -327 -580 -339 -13 -13 -15 -85 -16 -519
0 -277 2 -509 6 -514 6 -11 12 -8 96 40 23 13 80 45 125 70 99 55 129 71 274
154 61 34 133 74 160 90 28 15 79 44 114 64 96 55 173 98 300 169 25 14 67 38
93 53 27 16 51 29 53 29 2 0 30 15 62 34 56 33 390 222 483 274 25 14 61 34
80 45 19 11 55 31 80 45 25 14 61 34 80 45 40 23 268 150 320 180 253 141 320
181 340 202 l23 24 2 1593 c2 876 -1 1603 -6 1615 -4 12 -25 33 -46 46 -213
135 -218 137 -327 117 -100 -18 -261 -20 -362 -3 -278 44 -496 221 -629 508
-65 142 -87 184 -109 203 -12 11 -68 46 -126 79 -58 33 -260 150 -450 260
-664 385 -616 358 -623 346z"/>
</g>
</svg>
